<svg height="128" width="128" xmlns="http://www.w3.org/2000/svg"><radialGradient id="a" cx="16" cy="20.5" gradientTransform="matrix(4 0 0 2.92308 0 22.08)" gradientUnits="userSpaceOnUse" r="13"><stop offset="0" stop-color="#ed333b"/><stop offset="1" stop-color="#c01c28"/></radialGradient><linearGradient id="b" gradientUnits="userSpaceOnUse" x1="60" x2="60" y1="68" y2="8"><stop offset="0" stop-color="#dbc2ae"/><stop offset="1" stop-color="#cdab8f"/></linearGradient><path d="M45.884 53.86c-16.952 7.04-22.812-.76-31.52 24.024-6.484 18.476.524 32.808 19.12 38.12 10.44 2.98 20.5 3.988 30.52 3.988s20.072-1.008 30.512-3.992c18.6-5.308 25.608-19.64 19.12-38.116-8.704-24.784-14.568-16.988-31.52-24.024C68 48 60 48 45.884 53.86z" fill="url(#a)"/><circle cx="64" cy="40" fill="url(#b)" r="36"/><path d="M48 16v8h-8v8h8v16h-8v8h8v8h8v-8h16v8h8v-8h8v-8h-8V32h8v-8h-8v-8h-8v8H56v-8zm8 16h16v16H56z" fill="#3d3846"/></svg>